<?xml version="1.0" encoding="UTF-8"?>
<svg width="114px" height="110px" viewBox="0 0 114 110" version="1.1" xmlns="http://www.w3.org/2000/svg" xmlns:xlink="http://www.w3.org/1999/xlink">
    <!-- Generator: sketchtool 61.2 (101010) - https://sketch.com -->
    <title>3B6577AC-A005-4EEB-80F0-BD2EAA8C8525</title>
    <desc>Created with sketchtool.</desc>
    <g id="Page-1" stroke="none" stroke-width="1" fill="none" fill-rule="evenodd">
        <g id="search-placeholder" transform="translate(-1314.000000, -420.000000)">
            <g id="ic-no-results-placeholder" transform="translate(1312.000000, 417.000000)">
                <circle id="Oval-Copy-4" fill="#979797" transform="translate(58.000000, 58.000000) rotate(-180.000000) translate(-58.000000, -58.000000) " cx="58" cy="58" r="4"></circle>
                <circle id="Oval-Copy-3" stroke="#979797" stroke-width="6" transform="translate(58.500000, 85.500000) rotate(-180.000000) translate(-58.500000, -85.500000) " cx="58.5" cy="85.5" r="10.5"></circle>
                <circle id="Oval-Copy-5" stroke="#979797" stroke-width="6" transform="translate(58.500000, 31.500000) rotate(-180.000000) translate(-58.500000, -31.500000) " cx="58.5" cy="31.5" r="11.5"></circle>
                <circle id="Oval-Copy-3" stroke="#979797" stroke-width="6" transform="translate(32.000000, 58.000000) rotate(-90.000000) translate(-32.000000, -58.000000) " cx="32" cy="58" r="11"></circle>
                <circle id="Oval-Copy-5" stroke="#979797" stroke-width="6" transform="translate(85.000000, 58.000000) rotate(-90.000000) translate(-85.000000, -58.000000) " cx="85" cy="58" r="11"></circle>
                <path d="M92,97 C103.333333,87.6666667 109.047619,74.6666667 109.142857,58 C109.306962,29.2816278 85.8296845,6 57.0714286,6 C28.3131727,6 5,29.281193 5,58 C5,86.718807 28.3131727,110 57.0714286,110 L113,110" id="Path" stroke="#979797" stroke-width="6" stroke-linecap="round" stroke-linejoin="round"></path>
                <rect id="area" fill-opacity="0" fill="#D8D8D8" x="0" y="0" width="116" height="116"></rect>
            </g>
        </g>
    </g>
</svg>